<?xml version="1.0" encoding="UTF-8" standalone="no"?>
<!-- Created with Inkscape (http://www.inkscape.org/) -->

<svg
   width="480"
   height="480.00003"
   viewBox="0 0 479.99999 480.00001"
   version="1.1"
   id="svg1"
   sodipodi:docname="penrose-vw.svg"
   inkscape:version="1.4.3 (0d15f75, 2025-12-25)"
   xmlns:inkscape="http://www.inkscape.org/namespaces/inkscape"
   xmlns:sodipodi="http://sodipodi.sourceforge.net/DTD/sodipodi-0.dtd"
   xmlns:xlink="http://www.w3.org/1999/xlink"
   xmlns="http://www.w3.org/2000/svg"
   xmlns:svg="http://www.w3.org/2000/svg"
   xmlns:rdf="http://www.w3.org/1999/02/22-rdf-syntax-ns#"
   xmlns:cc="http://creativecommons.org/ns#"
   xmlns:dc="http://purl.org/dc/elements/1.1/">
  <sodipodi:namedview
     id="namedview1"
     pagecolor="#ffffff"
     bordercolor="#000000"
     borderopacity="0.25"
     inkscape:showpageshadow="2"
     inkscape:pageopacity="0.0"
     inkscape:pagecheckerboard="0"
     inkscape:deskcolor="#d1d1d1"
     inkscape:zoom="1"
     inkscape:cx="231"
     inkscape:cy="240"
     inkscape:window-width="1291"
     inkscape:window-height="921"
     inkscape:window-x="221"
     inkscape:window-y="33"
     inkscape:window-maximized="0"
     inkscape:current-layer="svg1" />
  <title
     id="title2">penrose vw</title>
  <defs
     id="defs1">
    <linearGradient
       id="linearGradientTeal">
      <stop
         style="stop-color:#001d1d;stop-opacity:1;"
         offset="0"
         id="stopLGT1" />
      <stop
         style="stop-color:#007d8a;stop-opacity:1;"
         offset="0.78019798"
         id="stopLGT2" />
    </linearGradient>
    <linearGradient
       id="linearGradientBlue">
      <stop
         style="stop-color:#17405d;stop-opacity:1;"
         offset="0.33962265"
         id="stopLGB1" />
      <stop
         style="stop-color:#3573a0;stop-opacity:1;"
         offset="0.78019798"
         id="stopLGB2" />
    </linearGradient>
    <linearGradient
       id="linearGradientViolet">
      <stop
         style="stop-color:#1d182f;stop-opacity:1;"
         offset="0"
         id="stopLGV1" />
      <stop
         style="stop-color:#5b4f8c;stop-opacity:1;"
         offset="0.78019798"
         id="stopLGV2" />
    </linearGradient>
    <linearGradient
       inkscape:collect="always"
       xlink:href="#linearGradientTeal"
       id="linearGradient5"
       gradientUnits="userSpaceOnUse"
       gradientTransform="matrix(3.7795276,0,0,3.7795276,598.61302,396.8504)"
       x1="-33.779148"
       y1="-13.742405"
       x2="42.439445"
       y2="43.692425" />
    <linearGradient
       inkscape:collect="always"
       xlink:href="#linearGradientBlue"
       id="linearGradient7"
       gradientUnits="userSpaceOnUse"
       gradientTransform="matrix(3.7795276,0,0,3.7795276,598.61302,396.8504)"
       x1="8.4890442"
       y1="-32.561413"
       x2="0.17124677"
       y2="62.511444" />
    <linearGradient
       inkscape:collect="always"
       xlink:href="#linearGradientViolet"
       id="linearGradient9"
       gradientUnits="userSpaceOnUse"
       gradientTransform="matrix(3.7795276,0,0,3.7795276,598.61302,396.8504)"
       x1="-12.770459"
       y1="-29.573584"
       x2="21.430746"
       y2="59.523602" />
    <clipPath
       clipPathUnits="userSpaceOnUse"
       id="clipPath1">
      <circle
         style="opacity:0.881944;fill:none;stroke:#000000;stroke-width:1.29815;stroke-opacity:1"
         id="circle1"
         cx="512.05457"
         cy="545.12219"
         r="341.68216" />
    </clipPath>
  </defs>
  <metadata
     id="metadata2">
    <rdf:RDF>
      <cc:Work
         rdf:about="">
        <dc:title>penrose vw</dc:title>
        <dc:subject>
          <rdf:Bag>
            <rdf:li>penrose avatar vw</rdf:li>
          </rdf:Bag>
        </dc:subject>
        <dc:publisher>
          <cc:Agent>
            <dc:title>Andrii Melnyk</dc:title>
          </cc:Agent>
        </dc:publisher>
        <dc:creator>
          <cc:Agent>
            <dc:title>Andrii Melnyk</dc:title>
          </cc:Agent>
        </dc:creator>
        <dc:description>Avatar  based on penrose triangle (https://en.wikipedia.org/wiki/Penrose_triangle)</dc:description>
      </cc:Work>
    </rdf:RDF>
  </metadata>
  <g
     id="g6"
     transform="translate(-968.4215,-190.15149)">
    <g
       id="penrose-vw"
       transform="matrix(0.70240719,0,0,0.70240719,848.75083,47.253771)"
       clip-path="url(#clipPath1)">
      <g
         id="g3"
         transform="matrix(2.6031639,0,0,2.6031639,-0.1749076,1.4757653)">
        <g
           id="use1"
           style="fill:url(#linearGradient5)"
           transform="translate(-401.89569,-226.96063)">
          <path
             style="display:inline;stroke:#000000;stroke-width:0.377953;stroke-linecap:square"
             d="m 434.95468,566.92914 130.92667,-226.77165 32.73167,56.69291 -65.46334,113.38583 h 261.85335 l -32.73167,56.69291 z"
             id="path4" />
          <path
             id="path5"
             style="display:inline;opacity:0.5;fill:none;fill-opacity:1;stroke:#000000;stroke-width:0.755906;stroke-linecap:butt;stroke-dasharray:none"
             d="M 572.42768,351.49607 454.59367,555.59056 H 768.81739 M 578.97401,362.83464 474.23266,544.25198 H 775.36372 M 585.52033,374.17321 493.87164,532.9134 l 288.03841,-10e-6 M 592.06668,385.51182 513.51067,521.57481 h 274.94602" />
        </g>
        <g
           id="use2"
           style="fill:url(#linearGradient7)"
           transform="rotate(-120,332.14729,437.18265)">
          <path
             style="display:inline;stroke:#000000;stroke-width:0.377953;stroke-linecap:square"
             d="m 434.95468,566.92914 130.92667,-226.77165 32.73167,56.69291 -65.46334,113.38583 h 261.85335 l -32.73167,56.69291 z"
             id="path6" />
          <path
             id="path7"
             style="display:inline;opacity:0.5;fill:none;fill-opacity:1;stroke:#000000;stroke-width:0.755906;stroke-linecap:butt;stroke-dasharray:none"
             d="M 572.42768,351.49607 454.59367,555.59056 H 768.81739 M 578.97401,362.83464 474.23266,544.25198 H 775.36372 M 585.52033,374.17321 493.87164,532.9134 l 288.03841,-10e-6 M 592.06668,385.51182 513.51067,521.57481 h 274.94602" />
        </g>
        <g
           id="use3"
           style="fill:url(#linearGradient9)"
           transform="rotate(120,463.18306,205.14807)">
          <path
             style="display:inline;stroke:#000000;stroke-width:0.377953;stroke-linecap:square"
             d="m 434.95468,566.92914 130.92667,-226.77165 32.73167,56.69291 -65.46334,113.38583 h 261.85335 l -32.73167,56.69291 z"
             id="path8" />
          <path
             id="path9"
             style="display:inline;opacity:0.5;fill:none;fill-opacity:1;stroke:#000000;stroke-width:0.755906;stroke-linecap:butt;stroke-dasharray:none"
             d="M 572.42768,351.49607 454.59367,555.59056 H 768.81739 M 578.97401,362.83464 474.23266,544.25198 H 775.36372 M 585.52033,374.17321 493.87164,532.9134 l 288.03841,-10e-6 M 592.06668,385.51182 513.51067,521.57481 h 274.94602" />
        </g>
      </g>
    </g>
    <path
       d="m 1208.4216,652.84869 c -47.2474,0 -85.956,-38.89839 -85.956,-86.14573 0,-10.62589 1.8974,-20.68256 5.5027,-30.16998 l 50.2833,101.13584 c 0.5693,1.32816 1.5181,2.46673 3.036,2.46673 1.518,0 2.4667,-1.13843 3.036,-2.46673 l 23.1492,-51.80129 c 0.1898,-0.5693 0.5694,-1.13844 1.1385,-1.13844 0.5693,0 0.759,0.56914 1.1385,1.13844 l 23.1492,51.80129 c 0.5694,1.32816 1.518,2.46673 3.036,2.46673 1.518,0 2.4668,-1.13843 3.036,-2.46673 l 50.2833,-101.13584 c 3.6053,9.48742 5.5028,19.54409 5.5028,30.16998 -0.3795,47.24734 -39.0882,86.14573 -86.3355,86.14573 z m 0,-105.68979 c -0.5693,0 -0.759,-0.56932 -1.1385,-1.13846 l -26.9443,-60.71949 c 8.7285,-3.22574 18.2159,-4.93346 28.0828,-4.93346 9.867,0 19.3543,1.70775 28.0828,4.93346 l -26.9443,60.71945 c -0.3795,0.75901 -0.5693,1.13843 -1.1385,1.13843 z m -27.5135,62.42718 c -0.5694,0 -0.759,-0.56932 -1.1384,-1.13844 l -43.6421,-88.04323 c 7.7796,-11.95414 18.2157,-22.01079 30.9289,-29.0315 l 31.4982,70.01713 c 0.3794,1.13845 1.3282,1.51805 2.2769,1.51805 h 15.1799 c 1.1385,0 1.8976,-0.1897 2.4668,-1.51805 l 31.4982,-70.01713 c 12.5235,7.02071 23.1493,17.07736 30.929,29.0315 l -44.0217,88.04323 c -0.1897,0.5693 -0.5692,1.13844 -1.1383,1.13844 -0.5694,0 -0.759,-0.56932 -1.1386,-1.13844 l -16.5081,-37.57019 c -0.5691,-1.32815 -1.3281,-1.51805 -2.4666,-1.51805 h -15.18 c -1.1384,0 -1.8974,0.18972 -2.4666,1.51805 l -15.9389,37.57019 c -0.1898,0.5693 -0.5694,1.13844 -1.1384,1.13844 z m 27.5135,51.99104 c 52.5603,0 94.8741,-42.31388 94.8741,-94.87416 0,-52.56028 -42.3138,-94.87415 -94.8741,-94.87415 -52.5603,0 -94.8742,42.31387 -94.8742,94.87415 0,52.56028 42.3139,94.87416 94.8742,94.87416 z"
       style="display:inline;fill:#ffffff;fill-opacity:1;stroke:none;stroke-width:1.89749"
       id="vw-logo" />
  </g>
</svg>
