<?xml version="1.0" encoding="UTF-8" standalone="no"?>
<!-- Created with Inkscape (http://www.inkscape.org/) -->

<svg
   width="1534.2684"
   height="1329.821"
   viewBox="0 0 1534.2684 1329.821"
   version="1.1"
   id="svg1"
   inkscape:version="1.4.3 (0d15f75, 2025-12-25)"
   sodipodi:docname="penrose-new.svg"
   xmlns:inkscape="http://www.inkscape.org/namespaces/inkscape"
   xmlns:sodipodi="http://sodipodi.sourceforge.net/DTD/sodipodi-0.dtd"
   xmlns:xlink="http://www.w3.org/1999/xlink"
   xmlns="http://www.w3.org/2000/svg"
   xmlns:svg="http://www.w3.org/2000/svg"
   xmlns:rdf="http://www.w3.org/1999/02/22-rdf-syntax-ns#"
   xmlns:cc="http://creativecommons.org/ns#"
   xmlns:dc="http://purl.org/dc/elements/1.1/">
  <title
     id="title2">penrose avatar</title>
  <sodipodi:namedview
     id="namedview1"
     pagecolor="#ffffff"
     bordercolor="#000000"
     borderopacity="0.25"
     inkscape:showpageshadow="2"
     inkscape:pageopacity="0.0"
     inkscape:pagecheckerboard="0"
     inkscape:deskcolor="#d1d1d1"
     inkscape:document-units="px"
     inkscape:zoom="0.24356902"
     inkscape:cx="1757.2021"
     inkscape:cy="110.85154"
     inkscape:window-width="1512"
     inkscape:window-height="949"
     inkscape:window-x="0"
     inkscape:window-y="33"
     inkscape:window-maximized="0"
     inkscape:current-layer="g6"
     showgrid="true"
     showguides="true">
    <inkscape:page
       x="0"
       y="0"
       width="1534.2684"
       height="1329.821"
       id="page1"
       margin="0"
       bleed="0" />
    <inkscape:page
       x="1763.5558"
       y="-1092.9"
       width="974.99982"
       height="974.99969"
       id="page2"
       margin="0"
       bleed="0" />
    <sodipodi:guide
       position="1381.6143,1329.821"
       orientation="0,-1"
       id="guide3"
       inkscape:locked="false" />
    <inkscape:grid
       id="grid1"
       units="px"
       originx="-3.9713684e-07"
       originy="4.2138367e-08"
       spacingx="0.99999998"
       spacingy="0.99999997"
       empcolor="#0099e5"
       empopacity="0.30196078"
       color="#0099e5"
       opacity="0.14901961"
       empspacing="5"
       enabled="false"
       visible="true" />
    <inkscape:page
       x="1763.5558"
       y="1.1494794e-05"
       width="480"
       height="480"
       id="page3"
       margin="0"
       bleed="0" />
    <sodipodi:guide
       position="0,838.67057"
       orientation="1,0"
       id="guide4"
       inkscape:locked="false" />
    <inkscape:page
       x="2258.5557"
       y="1.1494794e-05"
       width="480"
       height="480"
       id="page4"
       margin="0"
       bleed="0" />
    <sodipodi:guide
       position="1763.5558,898.92418"
       orientation="1,0"
       id="guide6"
       inkscape:locked="false" />
    <inkscape:page
       x="1763.5558"
       y="495"
       width="480"
       height="480"
       id="page6"
       margin="0"
       bleed="0" />
    <inkscape:page
       x="2258.5557"
       y="495"
       width="480"
       height="480"
       id="page7"
       margin="0"
       bleed="0" />
    <sodipodi:guide
       position="2738.5556,697.1594"
       orientation="1,0"
       id="guide7"
       inkscape:locked="false" />
  </sodipodi:namedview>
  <defs
     id="defs1">
    <linearGradient
       inkscape:collect="always"
       xlink:href="#linearGradientTeal"
       id="linearGradientSW"
       x1="-33.779148"
       y1="-13.742405"
       x2="42.439445"
       y2="43.692425"
       gradientUnits="userSpaceOnUse"
       gradientTransform="matrix(3.7795276,0,0,3.7795276,598.61302,396.8504)" />
    <linearGradient
       inkscape:collect="always"
       xlink:href="#linearGradientBlue"
       id="linearGradientSE"
       x1="8.4890442"
       y1="-32.561413"
       x2="0.17124677"
       y2="62.511444"
       gradientUnits="userSpaceOnUse"
       gradientTransform="matrix(3.7795276,0,0,3.7795276,598.61302,396.8504)" />
    <linearGradient
       inkscape:collect="always"
       xlink:href="#linearGradientViolet"
       id="linearGradientN"
       x1="-12.770459"
       y1="-29.573584"
       x2="21.430746"
       y2="59.523602"
       gradientUnits="userSpaceOnUse"
       gradientTransform="matrix(3.7795276,0,0,3.7795276,598.61302,396.8504)" />
    <linearGradient
       id="linearGradientTeal"
       inkscape:collect="always">
      <stop
         style="stop-color:#001d1d;stop-opacity:1;"
         offset="0"
         id="stopLGT1" />
      <stop
         style="stop-color:#007d8a;stop-opacity:1;"
         offset="0.78019798"
         id="stopLGT2" />
    </linearGradient>
    <linearGradient
       id="linearGradientBlue"
       inkscape:collect="always">
      <stop
         style="stop-color:#17405d;stop-opacity:1;"
         offset="0.33962265"
         id="stopLGB1" />
      <stop
         style="stop-color:#3573a0;stop-opacity:1;"
         offset="0.78019798"
         id="stopLGB2" />
    </linearGradient>
    <linearGradient
       id="linearGradientViolet"
       inkscape:collect="always">
      <stop
         style="stop-color:#1d182f;stop-opacity:1;"
         offset="0"
         id="stopLGV1" />
      <stop
         style="stop-color:#5b4f8c;stop-opacity:1;"
         offset="0.78019798"
         id="stopLGV2" />
    </linearGradient>
    <symbol
       id="shape">
      <path
         style="display:inline;stroke:#000000;stroke-width:0.377953;stroke-linecap:square"
         d="m 434.95468,566.92914 130.92667,-226.77165 32.73167,56.69291 -65.46334,113.38583 h 261.85335 l -32.73167,56.69291 z"
         id="boundary"
         inkscape:label="boundary" />
      <path
         id="lines"
         style="display:inline;opacity:0.5;fill:none;fill-opacity:1;stroke:#000000;stroke-width:0.755906;stroke-linecap:butt;stroke-dasharray:none"
         d="M 572.42768,351.49607 454.59367,555.59056 H 768.81739 M 578.97401,362.83464 474.23266,544.25198 H 775.36372 M 585.52033,374.17321 493.87164,532.9134 l 288.03841,-10e-6 M 592.06668,385.51182 513.51067,521.57481 h 274.94602"
         inkscape:label="lines" />
    </symbol>
    <symbol
       id="penrose">
      <g
         id="penrose_shape_group"
         transform="matrix(2.6031639,0,0,2.6031639,-0.1749076,1.4757653)">
        <use
           xlink:href="#shape"
           id="shape-sw"
           transform="translate(-401.89569,-226.96063)"
           style="display:inline;fill:url(#linearGradientSW)" />
        <use
           xlink:href="#shape"
           id="shape-se"
           transform="rotate(-120,332.14729,437.18265)"
           style="display:inline;fill:url(#linearGradientSE)" />
        <use
           xlink:href="#shape"
           id="shape-n"
           transform="rotate(120,463.18306,205.14807)"
           style="display:inline;fill:url(#linearGradientN)" />
      </g>
    </symbol>
    <clipPath
       id="clip-path-circle"
       clipPathUnits="userSpaceOnUse">
      <circle
         style="opacity:0.881944;fill:none;stroke:#000000;stroke-width:1.29815;stroke-opacity:1"
         id="clipping-circle"
         cx="512.05457"
         cy="545.12219"
         r="341.68216" />
    </clipPath>
  </defs>
  <g
     id="master"
     inkscape:groupmode="layer"
     sodipodi:insensitive="true"
     transform="translate(255.13422,304.84851)">
    <use
       xlink:href="#penrose"
       id="penrose-triangle"
       style="display:inline"
       inkscape:label="penrose-triangle"
       transform="matrix(1.4984686,0,0,1.4984686,-255.29771,-304.84851)"
       clip-path="none"
       sodipodi:insensitive="true" />
    <circle
       style="display:none;opacity:0.881944;fill:none;stroke:#000000;stroke-width:1.94524;stroke-opacity:1"
       id="clipping-circle-master"
       cx="511.99997"
       cy="511.99997"
       r="512"
       inkscape:label="clipping-circle-master"
       sodipodi:insensitive="true" />
  </g>
  <g
     inkscape:groupmode="layer"
     id="palettes"
     inkscape:label="palettes"
     transform="matrix(3.7795276,0,0,3.7795276,1763.5558,864.70143)"
     style="display:inline"
     inkscape:highlight-color="#fffb63"
     sodipodi:insensitive="true">
    <g
       id="g3"
       inkscape:label="dxc palette"
       transform="matrix(1.8413183,0,0,1.8413183,-0.21803253,-404.46383)">
      <rect
         style="fill:#214c50;fill-opacity:1"
         id="rect3"
         width="40"
         height="40"
         x="0.16841476"
         y="-61.582428"
         inkscape:label="Blue Dianne" />
      <rect
         style="display:inline;fill:#3573a0;fill-opacity:1"
         id="rect4"
         width="40.076923"
         height="40.049999"
         x="50.168415"
         y="-61.632416"
         inkscape:label="Arabic Blue" />
      <rect
         style="fill:#5b4f8c;fill-opacity:1"
         id="rect5"
         width="40"
         height="40"
         x="100.16842"
         y="-61.582428"
         inkscape:label="Cashmere Purple" />
      <rect
         style="fill:#46713b;fill-opacity:1"
         id="rect7"
         width="40"
         height="40"
         x="0.16841476"
         y="-11.582429"
         inkscape:label="Chalet Green" />
      <rect
         style="fill:#466792;fill-opacity:1"
         id="rect8"
         width="40"
         height="40"
         x="50.168415"
         y="-11.582429"
         inkscape:label="Sloe" />
      <rect
         style="fill:#8446b4;fill-opacity:1"
         id="rect9"
         width="40.050003"
         height="40.049999"
         x="100.11843"
         y="-11.632417"
         inkscape:label="Sensational Lavender" />
      <rect
         style="fill:#014a00;fill-opacity:1;stroke:#000000;stroke-width:0.1"
         id="rect11"
         width="40"
         height="40"
         x="0.16841476"
         y="38.417572"
         inkscape:label="Deep Green" />
      <rect
         style="fill:#004a7b;fill-opacity:1;stroke:#000000;stroke-width:0.1"
         id="rect12"
         width="40"
         height="40"
         x="50.168415"
         y="38.417572"
         inkscape:label="Ocean Blue" />
      <rect
         style="fill:#740098;fill-opacity:1;stroke:#000000;stroke-width:0.1"
         id="rect13"
         width="40"
         height="40"
         x="100.16842"
         y="38.417572"
         inkscape:label="Vivid Purple" />
    </g>
  </g>
  <metadata
     id="metadata2">
    <rdf:RDF>
      <cc:Work
         rdf:about="">
        <dc:title>penrose avatar</dc:title>
        <dc:subject>
          <rdf:Bag>
            <rdf:li>penrose avatar</rdf:li>
          </rdf:Bag>
        </dc:subject>
        <dc:publisher>
          <cc:Agent>
            <dc:title>Andrii Melnyk</dc:title>
          </cc:Agent>
        </dc:publisher>
        <dc:creator>
          <cc:Agent>
            <dc:title>Andrii Melnyk</dc:title>
          </cc:Agent>
        </dc:creator>
        <dc:description>Avatar  based on penrose triangle (https://en.wikipedia.org/wiki/Penrose_triangle)</dc:description>
      </cc:Work>
    </rdf:RDF>
  </metadata>
  <g
     id="penrose-round-480"
     inkscape:groupmode="layer"
     transform="translate(1290.1342,304.84851)"
     sodipodi:insensitive="true"
     style="display:inline">
    <use
       xlink:href="#penrose"
       id="penrose-round"
       style="display:inline"
       transform="matrix(0.70240719,0,0,0.70240719,353.75082,-447.74624)"
       clip-path="url(#clip-path-circle)" />
  </g>
  <g
     id="g4"
     inkscape:groupmode="layer"
     transform="translate(1290.1342,304.84851)"
     inkscape:label="penrose-dxc-480"
     inkscape:highlight-color="#740098"
     sodipodi:insensitive="true">
    <use
       xlink:href="#penrose"
       id="penrose-dxc"
       style="display:inline"
       transform="matrix(0.70240719,0,0,0.70240719,848.75083,-447.74624)"
       clip-path="url(#clip-path-circle)"
       inkscape:label="penrose-dxc"
       inkscape:highlight-color="#740098" />
    <path
       class="st0"
       d="m 1156.8665,70.496668 c -0.6891,4.627156 -2.0018,9.155854 -4.0693,13.61892 -3.0191,6.82587 -7.2196,13.389206 -12.8641,18.902412 -10.6326,10.76387 -26.5158,17.58974 -42.7601,17.58974 h -41.0865 V 96.979735 h 41.0537 c 9.7137,0 19.0337,-3.675473 25.3344,-10.238809 4.5615,-4.627149 7.7448,-10.271621 9.3856,-16.244258 z m 0,-18.016356 c -0.6891,-4.627156 -2.0018,-9.155854 -4.0693,-13.618928 -3.0191,-6.82587 -7.2196,-13.389207 -12.8641,-18.902408 C 1129.3005,9.1951075 1113.4173,2.3692376 1097.1402,2.3692376 h -41.0537 V 25.997245 h 41.0537 c 9.7137,0 19.0337,3.675473 25.3344,10.238809 4.5615,4.627149 7.7448,10.271621 9.3856,16.244258 z m 51.555,28.648961 -31.3727,39.478467 h -31.1102 l 46.9607,-59.102844 -46.9279,-59.1356584 h 31.1102 l 31.3727,39.4456494 31.34,-39.4456494 h 31.1102 l -46.9935,59.1356584 46.9606,59.102844 h -31.1102 z m 76.5613,-10.632605 c 1.6409,5.972637 4.8241,11.617109 9.3856,16.244258 6.3008,6.563336 15.6207,10.238809 25.3345,10.238809 h 41.0537 v 23.628005 h -41.0537 c -16.2771,0 -32.1604,-6.82587 -42.7601,-17.58974 -5.6445,-5.513206 -9.8451,-12.076542 -12.8642,-18.902412 -2.0675,-4.463066 -3.3801,-8.991764 -4.0693,-13.61892 z m 0,-18.016356 c 1.6409,-5.972637 4.8241,-11.617109 9.3856,-16.244258 6.3008,-6.563336 15.6207,-10.238809 25.3345,-10.238809 h 41.0537 V 2.3692376 h -41.0537 c -16.2771,0 -32.1604,6.8258699 -42.7601,17.5897384 -5.6445,5.513201 -9.8451,12.076538 -12.8642,18.902408 -2.0675,4.463074 -3.3801,8.991772 -4.0693,13.618928 z"
       id="path5"
       style="display:inline;fill:#ffffff;fill-opacity:1;stroke:none;stroke-width:1.59086;stroke-dasharray:none;stroke-opacity:1"
       inkscape:label="dxc-logo" />
  </g>
  <g
     id="g5"
     inkscape:groupmode="layer"
     transform="translate(1290.1342,304.84851)"
     inkscape:label="penrose-moia-480"
     inkscape:highlight-color="#27ff08"
     sodipodi:insensitive="true">
    <use
       xlink:href="#penrose"
       id="penrose-moia"
       style="display:inline"
       transform="matrix(0.70240719,0,0,0.70240719,353.75082,47.253771)"
       clip-path="url(#clip-path-circle)"
       inkscape:label="penrose-moia"
       inkscape:highlight-color="#27ff08" />
    <path
       d="M 953.40795,595.56928 907.69132,491.33187 861.97466,595.56928 h 17.67967 l 28.03699,-64.07311 28.03695,64.07311 z m -160.16482,0 h 17.57529 V 495.47481 h -17.57529 z m -67.89556,-13.38811 c 10.14754,-10.09484 15.27401,-22.31491 15.27401,-36.33972 0,-15.93922 -5.64934,-29.0079 -16.73828,-38.88977 -10.04317,-8.92575 -21.5506,-13.38811 -34.2092,-13.38811 -14.33264,0 -26.6771,5.10013 -36.82464,15.08744 -10.04319,9.98836 -15.1686,22.31385 -15.1686,36.65914 0,14.23775 5.12541,26.56325 15.1686,36.76455 10.04319,10.09378 22.17891,15.30039 36.09198,15.30039 14.12286,0 26.36294,-5.10014 36.40613,-15.19498 z m -2.40563,-36.4462 c 0,9.66895 -3.24373,17.95693 -9.83447,24.54449 -6.48531,6.69405 -14.54137,10.09485 -24.0606,10.09485 -9.52031,0 -17.57531,-3.39974 -23.95731,-10.09485 -6.48639,-6.58756 -9.72903,-14.982 -9.72903,-24.86389 0,-9.66895 3.34702,-18.0634 9.83338,-24.8639 6.48638,-6.69406 14.64679,-10.0938 24.16604,-10.0938 8.78767,0 16.63391,3.29432 23.32902,9.88189 6.80052,6.69405 10.25297,15.19497 10.25297,25.39521 z m -134.11709,49.83431 h 18.41231 L 563.71742,491.33187 540.28405,556.67949 516.95502,491.33081 473.4353,595.56928 h 18.41231 l 24.68891,-59.18489 23.74753,63.32885 23.74751,-63.32885 z"
       id="path1"
       style="display:inline;fill:#08ff00;fill-opacity:1;stroke:none;stroke-width:1.259;stroke-dasharray:none;stroke-opacity:1"
       inkscape:label="moia" />
  </g>
  <g
     id="g6"
     inkscape:groupmode="layer"
     transform="translate(1290.1342,304.84851)"
     inkscape:label="penrose-vw-480"
     inkscape:highlight-color="#27ff08"
     sodipodi:insensitive="true">
    <use
       xlink:href="#penrose"
       id="penrose-vw"
       style="display:inline"
       transform="matrix(0.70240719,0,0,0.70240719,848.75083,47.253771)"
       clip-path="url(#clip-path-circle)"
       inkscape:label="penrose-vw"
       inkscape:highlight-color="#27ff08" />
    <path
       d="m 1208.4216,652.84869 c -47.2474,0 -85.956,-38.89839 -85.956,-86.14573 0,-10.62589 1.8974,-20.68256 5.5027,-30.16998 l 50.2833,101.13584 c 0.5693,1.32816 1.5181,2.46673 3.036,2.46673 1.518,0 2.4667,-1.13843 3.036,-2.46673 l 23.1492,-51.80129 c 0.1898,-0.5693 0.5694,-1.13844 1.1385,-1.13844 0.5693,0 0.759,0.56914 1.1385,1.13844 l 23.1492,51.80129 c 0.5694,1.32816 1.518,2.46673 3.036,2.46673 1.518,0 2.4668,-1.13843 3.036,-2.46673 l 50.2833,-101.13584 c 3.6053,9.48742 5.5028,19.54409 5.5028,30.16998 -0.3795,47.24734 -39.0882,86.14573 -86.3355,86.14573 z m 0,-105.68979 c -0.5693,0 -0.759,-0.56932 -1.1385,-1.13846 l -26.9443,-60.71949 c 8.7285,-3.22574 18.2159,-4.93346 28.0828,-4.93346 9.867,0 19.3543,1.70775 28.0828,4.93346 l -26.9443,60.71945 c -0.3795,0.75901 -0.5693,1.13843 -1.1385,1.13843 z m -27.5135,62.42718 c -0.5694,0 -0.759,-0.56932 -1.1384,-1.13844 l -43.6421,-88.04323 c 7.7796,-11.95414 18.2157,-22.01079 30.9289,-29.0315 l 31.4982,70.01713 c 0.3794,1.13845 1.3282,1.51805 2.2769,1.51805 h 15.1799 c 1.1385,0 1.8976,-0.1897 2.4668,-1.51805 l 31.4982,-70.01713 c 12.5235,7.02071 23.1493,17.07736 30.929,29.0315 l -44.0217,88.04323 c -0.1897,0.5693 -0.5692,1.13844 -1.1383,1.13844 -0.5694,0 -0.759,-0.56932 -1.1386,-1.13844 l -16.5081,-37.57019 c -0.5691,-1.32815 -1.3281,-1.51805 -2.4666,-1.51805 h -15.18 c -1.1384,0 -1.8974,0.18972 -2.4666,1.51805 l -15.9389,37.57019 c -0.1898,0.5693 -0.5694,1.13844 -1.1384,1.13844 z m 27.5135,51.99104 c 52.5603,0 94.8741,-42.31388 94.8741,-94.87416 0,-52.56028 -42.3138,-94.87415 -94.8741,-94.87415 -52.5603,0 -94.8742,42.31387 -94.8742,94.87415 0,52.56028 42.3139,94.87416 94.8742,94.87416 z"
       style="display:inline;fill:#ffffff;fill-opacity:1;stroke:none;stroke-width:1.89749"
       id="vw-logo"
       inkscape:label="vw-logo" />
  </g>
</svg>
